<mxfile host="app.diagrams.net" modified="2023-06-09T22:47:37.039Z" agent="Mozilla/5.0 (X11; Linux x86_64) AppleWebKit/537.36 (KHTML, like Gecko) Chrome/114.0.0.0 Safari/537.36" etag="p2BKf0F2tohOBOTN59o2" version="21.3.7" type="device">
  <diagram name="Page-1" id="9uEI_o1jSFQKAdZgtg52">
    <mxGraphModel dx="939" dy="534" grid="1" gridSize="10" guides="1" tooltips="1" connect="1" arrows="1" fold="1" page="1" pageScale="1" pageWidth="850" pageHeight="1100" math="0" shadow="0">
      <root>
        <mxCell id="0" />
        <mxCell id="1" parent="0" />
        <mxCell id="X7CRMqkfVBuR3V3xRcWx-22" value="" style="endArrow=none;html=1;rounded=0;entryX=0.5;entryY=1;entryDx=0;entryDy=0;exitX=0.5;exitY=0;exitDx=0;exitDy=0;strokeWidth=20;strokeColor=#004C99;" edge="1" parent="1">
          <mxGeometry width="50" height="50" relative="1" as="geometry">
            <mxPoint x="299.66" y="280" as="sourcePoint" />
            <mxPoint x="299.66" y="200" as="targetPoint" />
          </mxGeometry>
        </mxCell>
        <mxCell id="X7CRMqkfVBuR3V3xRcWx-12" value="" style="endArrow=none;html=1;rounded=0;entryX=0.5;entryY=1;entryDx=0;entryDy=0;exitX=0.5;exitY=0;exitDx=0;exitDy=0;strokeWidth=10;strokeColor=#004C99;" edge="1" parent="1" source="X7CRMqkfVBuR3V3xRcWx-9" target="X7CRMqkfVBuR3V3xRcWx-6">
          <mxGeometry width="50" height="50" relative="1" as="geometry">
            <mxPoint x="400" y="250" as="sourcePoint" />
            <mxPoint x="450" y="200" as="targetPoint" />
          </mxGeometry>
        </mxCell>
        <mxCell id="X7CRMqkfVBuR3V3xRcWx-13" value="" style="endArrow=none;html=1;rounded=0;entryX=0.5;entryY=1;entryDx=0;entryDy=0;exitX=0.5;exitY=0;exitDx=0;exitDy=0;strokeWidth=10;strokeColor=#004C99;" edge="1" parent="1" source="X7CRMqkfVBuR3V3xRcWx-10" target="X7CRMqkfVBuR3V3xRcWx-8">
          <mxGeometry width="50" height="50" relative="1" as="geometry">
            <mxPoint x="610" y="290" as="sourcePoint" />
            <mxPoint x="610" y="210" as="targetPoint" />
          </mxGeometry>
        </mxCell>
        <mxCell id="X7CRMqkfVBuR3V3xRcWx-2" value="&lt;b style=&quot;font-size: 20px;&quot;&gt;B&lt;br&gt;R&lt;br&gt;I&lt;br&gt;D&lt;br&gt;G&lt;br&gt;E&lt;/b&gt;" style="shape=ext;double=1;rounded=1;whiteSpace=wrap;html=1;" vertex="1" parent="1">
          <mxGeometry x="480" y="160" width="40" height="160" as="geometry" />
        </mxCell>
        <mxCell id="X7CRMqkfVBuR3V3xRcWx-4" value="&lt;b&gt;&lt;font color=&quot;#ffffff&quot; style=&quot;font-size: 33px;&quot;&gt;AHB&lt;/font&gt;&lt;/b&gt;" style="rounded=0;whiteSpace=wrap;html=1;fillColor=#004C99;strokeColor=none;" vertex="1" parent="1">
          <mxGeometry x="120" y="220" width="360" height="40" as="geometry" />
        </mxCell>
        <mxCell id="X7CRMqkfVBuR3V3xRcWx-5" value="&lt;b&gt;&lt;font color=&quot;#ffffff&quot; style=&quot;font-size: 24px;&quot;&gt;APB&lt;/font&gt;&lt;/b&gt;" style="rounded=0;whiteSpace=wrap;html=1;fillColor=#004C99;strokeColor=none;" vertex="1" parent="1">
          <mxGeometry x="520" y="225" width="180" height="30" as="geometry" />
        </mxCell>
        <mxCell id="X7CRMqkfVBuR3V3xRcWx-6" value="&lt;b&gt;&lt;font style=&quot;font-size: 20px;&quot;&gt;IP&lt;/font&gt;&lt;/b&gt;" style="shape=ext;double=1;rounded=1;whiteSpace=wrap;html=1;" vertex="1" parent="1">
          <mxGeometry x="540" y="160" width="80" height="40" as="geometry" />
        </mxCell>
        <mxCell id="X7CRMqkfVBuR3V3xRcWx-8" value="&lt;b&gt;&lt;font style=&quot;font-size: 20px;&quot;&gt;IP&lt;/font&gt;&lt;/b&gt;" style="shape=ext;double=1;rounded=1;whiteSpace=wrap;html=1;" vertex="1" parent="1">
          <mxGeometry x="660" y="160" width="80" height="40" as="geometry" />
        </mxCell>
        <mxCell id="X7CRMqkfVBuR3V3xRcWx-9" value="&lt;b&gt;&lt;font style=&quot;font-size: 20px;&quot;&gt;IP&lt;/font&gt;&lt;/b&gt;" style="shape=ext;double=1;rounded=1;whiteSpace=wrap;html=1;" vertex="1" parent="1">
          <mxGeometry x="540" y="280" width="80" height="40" as="geometry" />
        </mxCell>
        <mxCell id="X7CRMqkfVBuR3V3xRcWx-10" value="&lt;b&gt;&lt;font style=&quot;font-size: 20px;&quot;&gt;IP&lt;/font&gt;&lt;/b&gt;" style="shape=ext;double=1;rounded=1;whiteSpace=wrap;html=1;" vertex="1" parent="1">
          <mxGeometry x="660" y="280" width="80" height="40" as="geometry" />
        </mxCell>
        <mxCell id="X7CRMqkfVBuR3V3xRcWx-14" value="&lt;font style=&quot;font-size: 30px;&quot;&gt;IP&lt;/font&gt;" style="shape=ext;double=1;rounded=1;whiteSpace=wrap;html=1;" vertex="1" parent="1">
          <mxGeometry x="40" y="200" width="80" height="80" as="geometry" />
        </mxCell>
        <mxCell id="X7CRMqkfVBuR3V3xRcWx-15" value="&lt;font style=&quot;font-size: 30px;&quot;&gt;IP&lt;/font&gt;" style="shape=ext;double=1;rounded=1;whiteSpace=wrap;html=1;" vertex="1" parent="1">
          <mxGeometry x="140" y="120" width="80" height="80" as="geometry" />
        </mxCell>
        <mxCell id="X7CRMqkfVBuR3V3xRcWx-16" value="&lt;font style=&quot;font-size: 30px;&quot;&gt;IP&lt;/font&gt;" style="shape=ext;double=1;rounded=1;whiteSpace=wrap;html=1;" vertex="1" parent="1">
          <mxGeometry x="260" y="120" width="80" height="80" as="geometry" />
        </mxCell>
        <mxCell id="X7CRMqkfVBuR3V3xRcWx-17" value="&lt;font style=&quot;font-size: 30px;&quot;&gt;IP&lt;/font&gt;" style="shape=ext;double=1;rounded=1;whiteSpace=wrap;html=1;" vertex="1" parent="1">
          <mxGeometry x="380" y="120" width="80" height="80" as="geometry" />
        </mxCell>
        <mxCell id="X7CRMqkfVBuR3V3xRcWx-18" value="&lt;font style=&quot;font-size: 30px;&quot;&gt;IP&lt;/font&gt;" style="shape=ext;double=1;rounded=1;whiteSpace=wrap;html=1;" vertex="1" parent="1">
          <mxGeometry x="140" y="280" width="80" height="80" as="geometry" />
        </mxCell>
        <mxCell id="X7CRMqkfVBuR3V3xRcWx-19" value="&lt;font style=&quot;font-size: 30px;&quot;&gt;IP&lt;/font&gt;" style="shape=ext;double=1;rounded=1;whiteSpace=wrap;html=1;" vertex="1" parent="1">
          <mxGeometry x="260" y="280" width="80" height="80" as="geometry" />
        </mxCell>
        <mxCell id="X7CRMqkfVBuR3V3xRcWx-20" value="&lt;font style=&quot;font-size: 30px;&quot;&gt;IP&lt;/font&gt;" style="shape=ext;double=1;rounded=1;whiteSpace=wrap;html=1;" vertex="1" parent="1">
          <mxGeometry x="380" y="280" width="80" height="80" as="geometry" />
        </mxCell>
        <mxCell id="X7CRMqkfVBuR3V3xRcWx-21" value="" style="endArrow=none;html=1;rounded=0;entryX=0.5;entryY=1;entryDx=0;entryDy=0;exitX=0.5;exitY=0;exitDx=0;exitDy=0;strokeWidth=20;strokeColor=#004C99;" edge="1" parent="1">
          <mxGeometry width="50" height="50" relative="1" as="geometry">
            <mxPoint x="179.66000000000003" y="280" as="sourcePoint" />
            <mxPoint x="179.66000000000003" y="200" as="targetPoint" />
          </mxGeometry>
        </mxCell>
        <mxCell id="X7CRMqkfVBuR3V3xRcWx-23" value="" style="endArrow=none;html=1;rounded=0;entryX=0.5;entryY=1;entryDx=0;entryDy=0;exitX=0.5;exitY=0;exitDx=0;exitDy=0;strokeWidth=20;strokeColor=#004C99;" edge="1" parent="1">
          <mxGeometry width="50" height="50" relative="1" as="geometry">
            <mxPoint x="419.65999999999997" y="280" as="sourcePoint" />
            <mxPoint x="419.65999999999997" y="200" as="targetPoint" />
          </mxGeometry>
        </mxCell>
      </root>
    </mxGraphModel>
  </diagram>
</mxfile>
